<?xml version="1.0" encoding="UTF-8"?>
<svg width="20px" height="20px" viewBox="0 0 20 20" version="1.1" xmlns="http://www.w3.org/2000/svg" xmlns:xlink="http://www.w3.org/1999/xlink">
    <!-- Generator: Sketch 48.2 (47327) - http://www.bohemiancoding.com/sketch -->
    <title>Dribbble-color</title>
    <desc>Created with Sketch.</desc>
    <defs></defs>
    <g id="Account-Settings/social" stroke="none" stroke-width="1" fill="none" fill-rule="evenodd" transform="translate(-837.000000, -291.000000)">
        <g id="input-copy-5" transform="translate(825.000000, 263.000000)" fill="#EC4989">
            <path d="M26.7727406,45.0827209 C26.6857176,44.5676995 26.2306109,42.0607913 25.1098959,38.9835969 C27.8675839,38.5426539 30.2560122,39.2987242 30.4324102,39.3563408 C30.0525666,41.7362573 28.6895984,43.7881122 26.7727406,45.0827209 L26.7727406,45.0827209 L26.7727406,45.0827209 Z M22.000588,46.5407725 C19.933204,46.5407725 18.037514,45.8058675 16.5592991,44.5829855 C16.6721938,44.6747016 16.7509849,44.7323182 16.7509849,44.7323182 C16.7509849,44.7323182 18.3879579,41.1624434 23.4529311,39.3974954 C23.4717469,39.3904404 23.4917387,39.385737 23.5105545,39.3798577 C24.7124125,42.5017344 25.2075028,45.1168205 25.3345093,45.863484 C24.3102252,46.2985478 23.1824543,46.5407725 22.000588,46.5407725 L22.000588,46.5407725 L22.000588,46.5407725 Z M13.4593991,37.9994121 C13.4593991,37.9088718 13.464103,37.8195073 13.466455,37.7301429 C13.6181572,37.7336704 17.8375963,37.8289141 22.2346093,36.5131401 C22.4792144,36.9917103 22.7132357,37.4796872 22.9272652,37.9653125 C22.8143706,37.9958845 22.7026518,38.0299841 22.5909331,38.0676113 C17.9822426,39.5562349 15.6443817,43.7022753 15.6443817,43.7022753 C15.6443817,43.7022753 15.6479097,43.7058028 15.6479097,43.7069787 C14.2872935,42.1936622 13.4593991,40.1935446 13.4593991,37.9994121 L13.4593991,37.9994121 L13.4593991,37.9994121 Z M18.3562063,30.2776177 C18.4702769,30.4293021 20.0496266,32.5705215 21.5278415,35.1973661 C17.427177,36.2873773 13.8674663,36.2438709 13.6428529,36.2403433 C14.1967425,33.5946852 15.9736579,31.4017285 18.3562063,30.2776177 L18.3562063,30.2776177 L18.3562063,30.2776177 Z M19.9543717,29.7085073 C19.9543717,29.7096831 19.9531957,29.710859 19.9531957,29.710859 C19.9531957,29.710859 19.9426119,29.7132107 19.927324,29.7155623 C19.9367319,29.7132107 19.9449638,29.7120348 19.9543717,29.7085073 L19.9543717,29.7085073 L19.9543717,29.7085073 Z M27.6406186,31.5922159 C27.6194508,31.6239638 26.4034809,33.4759245 23.1789263,34.6835205 C21.7195273,32.001411 20.1154819,29.8707743 19.9872993,29.7014522 C20.6329159,29.5450644 21.306756,29.4604033 22.000588,29.4604033 C24.1620509,29.4604033 26.136532,30.2670351 27.6406186,31.5922159 L27.6406186,31.5922159 L27.6406186,31.5922159 Z M30.538249,37.914751 C30.4147704,37.8877065 27.5241959,37.2656829 24.59011,37.6348992 C24.5289587,37.489094 24.4689834,37.342113 24.4054801,37.195132 C24.2279062,36.7765301 24.0362204,36.3626315 23.8374787,35.9557881 C27.2102076,34.57887 28.5790557,32.5999177 28.5955195,32.5764007 C29.7926736,34.0309248 30.5182572,35.8887648 30.538249,37.914751 L30.538249,37.914751 L30.538249,37.914751 Z M31.7977303,35.987536 C31.6660199,35.345523 31.4684542,34.7117408 31.2132651,34.1073549 C30.963956,33.5147275 30.6523196,32.9432653 30.2912918,32.4094303 C29.934968,31.8802987 29.5233727,31.3817391 29.071794,30.9302134 C28.6190392,30.4775119 28.121597,30.0671409 27.5912271,29.7096831 C27.0573293,29.3475219 26.4858,29.0382739 25.8931028,28.7866424 C25.2886459,28.5326592 24.6559652,28.3351167 24.0138766,28.2045976 C23.3553243,28.069375 22.6779561,28 22.000588,28 C21.3220439,28 20.6446757,28.069375 19.9861234,28.2045976 C19.3440348,28.3351167 18.7113541,28.5326592 18.1068972,28.7866424 C17.5142,29.0382739 16.9426707,29.3475219 16.4075969,29.7096831 C15.878403,30.0671409 15.3809608,30.4775119 14.928206,30.9302134 C14.4766273,31.3817391 14.066208,31.8802987 13.7087082,32.4094303 C13.3476804,32.9432653 13.036044,33.5147275 12.7867349,34.1073549 C12.5303698,34.7117408 12.3339801,35.345523 12.2022697,35.987536 C12.0682072,36.6448351 12,37.3221236 12,37.9994121 C12,38.6790523 12.0682072,39.3563408 12.2022697,40.0148157 C12.3339801,40.6568287 12.5303698,41.289435 12.7867349,41.8926451 C13.036044,42.4852725 13.3476804,43.0590864 13.7087082,43.5929214 C14.066208,44.122053 14.4766273,44.6182609 14.928206,45.0721383 C15.3809608,45.5236639 15.878403,45.9328591 16.4075969,46.2914927 C16.9426707,46.6524781 17.5142,46.962902 18.1068972,47.2133576 C18.7113541,47.4696925 19.3440348,47.6648833 19.9861234,47.7954024 C20.6446757,47.9318008 21.3220439,48 22.000588,48 C22.6779561,48 23.3553243,47.9318008 24.0138766,47.7954024 C24.6559652,47.6648833 25.2886459,47.4696925 25.8931028,47.2133576 C26.4858,46.962902 27.0573293,46.6524781 27.5912271,46.2914927 C28.121597,45.9328591 28.6190392,45.5236639 29.071794,45.0721383 C29.5233727,44.6182609 29.934968,44.122053 30.2912918,43.5929214 C30.6523196,43.0590864 30.963956,42.4852725 31.2132651,41.8926451 C31.4684542,41.289435 31.6660199,40.6568287 31.7977303,40.0148157 C31.9317928,39.3563408 32,38.6790523 32,37.9994121 C32,37.3221236 31.9317928,36.6448351 31.7977303,35.987536 L31.7977303,35.987536 L31.7977303,35.987536 Z" id="Dribbble"></path>
        </g>
    </g>
</svg>