<?xml version="1.0" encoding="UTF-8"?>
<svg width="20px" height="20px" viewBox="0 0 20 20" version="1.1" xmlns="http://www.w3.org/2000/svg" xmlns:xlink="http://www.w3.org/1999/xlink">
    <!-- Generator: Sketch 48.2 (47327) - http://www.bohemiancoding.com/sketch -->
    <title>Facebook-color</title>
    <desc>Created with Sketch.</desc>
    <defs></defs>
    <g id="Account-Settings/social" stroke="none" stroke-width="1" fill="none" fill-rule="evenodd" transform="translate(-477.000000, -364.000000)">
        <g id="input-copy" transform="translate(465.000000, 336.000000)" fill="#4460A0">
            <path d="M22.682648,48 L13.1038465,48 C12.4940303,48 12,47.5056631 12,46.8960845 L12,29.1038379 C12,28.494104 12.4941079,28 13.1038465,28 L30.8962311,28 C31.5058145,28 32,28.494104 32,29.1038379 L32,46.8960845 C32,47.5057407 31.5057369,48 30.8962311,48 L25.7997105,48 L25.7997105,40.2548978 L28.3993838,40.2548978 L28.788648,37.236494 L25.7997105,37.236494 L25.7997105,35.3094339 C25.7997105,34.4355364 26.0423798,33.840004 27.2955374,33.840004 L28.8938797,33.8393056 L28.8938797,31.1396211 C28.6174525,31.1028368 27.6686598,31.0206543 26.5648133,31.0206543 C24.2603476,31.0206543 22.682648,32.4273026 22.682648,35.0105037 L22.682648,37.236494 L20.0763007,37.236494 L20.0763007,40.2548978 L22.682648,40.2548978 L22.682648,48 L22.682648,48 Z" id="Facebook"></path>
        </g>
    </g>
</svg>