<?xml version="1.0" encoding="UTF-8"?>
<svg width="20px" height="13px" viewBox="0 0 20 13" version="1.1" xmlns="http://www.w3.org/2000/svg" xmlns:xlink="http://www.w3.org/1999/xlink">
    <!-- Generator: Sketch 48.2 (47327) - http://www.bohemiancoding.com/sketch -->
    <title>GooglePlus-color</title>
    <desc>Created with Sketch.</desc>
    <defs></defs>
    <g id="Account-Settings/social" stroke="none" stroke-width="1" fill="none" fill-rule="evenodd" transform="translate(-477.000000, -514.000000)">
        <g id="input-copy-3" transform="translate(465.000000, 482.000000)" fill="#F93F2D">
            <path d="M29.7987421,37.229523 L29.7987421,35.0243024 L28.2264151,35.0243024 L28.2264151,37.229523 L25.9622642,37.229523 L25.9622642,38.8046805 L28.2264151,38.8046805 L28.2264151,41.0729073 L29.7987421,41.0729073 L29.7987421,38.8046805 L32,38.8046805 L32,37.229523 L29.7987421,37.229523 L29.7987421,37.229523 Z M18.3522013,37.1035104 L18.3522013,39.6237624 C18.3522013,39.6237624 20.7927044,39.620486 21.7864151,39.620486 C21.2483019,41.2543024 20.4115723,42.1440144 18.3522013,42.1440144 C16.2681132,42.1440144 14.6415094,40.4514761 14.6415094,38.3636364 C14.6415094,36.2757966 16.2681132,34.5832583 18.3522013,34.5832583 C19.4540881,34.5832583 20.1657233,34.9712511 20.8184906,35.5120342 C21.3410063,34.9885779 21.2973585,34.9139784 22.6267296,33.6563096 C21.498239,32.6272907 19.9983648,32 18.3522013,32 C14.8439623,32 12,34.8490819 12,38.3636364 C12,41.8781278 14.8439623,44.7272727 18.3522013,44.7272727 C23.5960377,44.7272727 24.8777358,40.1530153 24.4528302,37.1035104 L18.3522013,37.1035104 L18.3522013,37.1035104 Z" id="GooglePlus"></path>
        </g>
    </g>
</svg>