<?xml version="1.0" encoding="UTF-8"?>
<svg width="11px" height="18px" viewBox="0 0 11 18" version="1.1" xmlns="http://www.w3.org/2000/svg" xmlns:xlink="http://www.w3.org/1999/xlink">
    <!-- Generator: Sketch 48.2 (47327) - http://www.bohemiancoding.com/sketch -->
    <title>Tumblr-color</title>
    <desc>Created with Sketch.</desc>
    <defs></defs>
    <g id="Account-Settings/social" stroke="none" stroke-width="1" fill="none" fill-rule="evenodd" transform="translate(-481.000000, -584.000000)">
        <g id="input-copy-4" transform="translate(465.000000, 555.000000)" fill="#34455D">
            <path d="M26.0795275,43.3777766 C25.723637,43.5374095 25.043022,43.676299 24.5354975,43.6882489 C23.0032147,43.7268043 22.7058202,42.676001 22.6934737,41.9142503 L22.6934737,36.3107549 L26.5370667,36.3107549 L26.5370667,33.5852725 L22.7067791,33.5852725 L22.7067791,29 L19.903887,29 C19.8577375,29 19.7771857,29.0379917 19.7657982,29.1343802 C19.6018176,30.537706 18.9037018,33.0007413 16,33.9855946 L16,36.3106422 L17.9370798,36.3106422 L17.9370798,42.1916912 C17.9370798,44.2054773 19.5164711,47.0663546 23.6858675,46.9988263 C25.0926477,46.9761665 26.6550176,46.422412 27,45.9443027 L26.0795275,43.3777766" id="Tumblr"></path>
        </g>
    </g>
</svg>