<?xml version="1.0" encoding="UTF-8"?>
<svg width="20px" height="17px" viewBox="0 0 20 17" version="1.1" xmlns="http://www.w3.org/2000/svg" xmlns:xlink="http://www.w3.org/1999/xlink">
    <!-- Generator: Sketch 48.2 (47327) - http://www.bohemiancoding.com/sketch -->
    <title>Twitter-color</title>
    <desc>Created with Sketch.</desc>
    <defs></defs>
    <g id="Account-Settings/social" stroke="none" stroke-width="1" fill="none" fill-rule="evenodd" transform="translate(-477.000000, -293.000000)">
        <g id="input" transform="translate(465.000000, 263.000000)" fill="#00AAEC">
            <path d="M32,32.0124955 C31.2651288,32.3538462 30.4739097,32.5846876 29.6439514,32.6878295 C30.4915185,32.1573853 31.1418677,31.3162875 31.4482597,30.3143373 C30.6546927,30.8054893 29.7777778,31.1628025 28.8409931,31.3543518 C28.0943828,30.5206212 27.0272935,30 25.8463344,30 C23.5818513,30 21.7446734,31.9216324 21.7446734,34.291441 C21.7446734,34.6278801 21.7798908,34.9544962 21.8503258,35.2688335 C18.440101,35.089563 15.4172683,33.3828097 13.3922639,30.7833875 C13.0389153,31.4194294 12.8370018,32.1573853 12.8370018,32.9432286 C12.8370018,34.4314193 13.5613077,35.745251 14.6624406,36.5151318 C13.9909608,36.4942579 13.3570464,36.2990249 12.8029583,35.9797761 L12.8029583,36.0325749 C12.8029583,38.1126038 14.2175266,39.8475984 16.0957915,40.24052 C15.7518342,40.3412062 15.3890943,40.3915493 15.0146152,40.3915493 C14.7504842,40.3915493 14.4922228,40.3657638 14.2421788,40.3154207 C14.7645712,42.0197183 16.2789223,43.2611051 18.0750132,43.2942579 C16.6710102,44.4460094 14.9007454,45.1323944 12.9790456,45.1323944 C12.6480014,45.1323944 12.320479,45.1127483 12,45.0734561 C13.8160474,46.2890574 15.9737043,47 18.2898398,47 C25.838117,47 29.9644304,40.4615385 29.9644304,34.7899603 C29.9644304,34.6033225 29.9609086,34.4166847 29.9538651,34.2337306 C30.7556495,33.6283857 31.4517814,32.8732394 32,32.0124955" id="Twitter"></path>
        </g>
    </g>
</svg>