<?xml version="1.0" encoding="UTF-8"?>
<svg width="20px" height="13px" viewBox="0 0 20 13" version="1.1" xmlns="http://www.w3.org/2000/svg" xmlns:xlink="http://www.w3.org/1999/xlink">
    <!-- Generator: Sketch 48.2 (47327) - http://www.bohemiancoding.com/sketch -->
    <title>Behance-color</title>
    <desc>Created with Sketch.</desc>
    <defs></defs>
    <g id="Account-Settings/social" stroke="none" stroke-width="1" fill="none" fill-rule="evenodd" transform="translate(-837.000000, -441.000000)">
        <g id="input-copy-7" transform="translate(825.000000, 409.000000)" fill="#1769FF">
            <path d="M24.7799032,34.0858469 L30.0762487,34.0858469 L30.0762487,32.5684455 L24.7799032,32.5684455 L24.7799032,34.0858469 L24.7799032,34.0858469 Z M26.0346103,37.3967517 C25.6971211,37.7401392 25.4842795,38.2053364 25.3972614,38.7923434 L29.5165106,38.7923434 C29.4730016,38.1658933 29.2589841,37.6925754 28.8803377,37.3665893 C28.4969876,37.0429234 28.0254435,36.8816705 27.4610017,36.8816705 C26.8495231,36.8816705 26.3720994,37.0533643 26.0346103,37.3967517 L26.0346103,37.3967517 L26.0346103,37.3967517 Z M29.6094083,35.3596288 C30.2479331,35.6403712 30.7735696,36.0858469 31.1874935,36.6937355 C31.564964,37.2296984 31.8072036,37.8515081 31.9177401,38.5580046 C31.9824158,38.9709977 32.008286,39.5696056 31.9977027,40.3480278 L25.3384654,40.3480278 C25.3784467,41.2517401 25.6935933,41.8863109 26.2956646,42.24942 C26.6601999,42.4756381 27.0988182,42.5893271 27.6138714,42.5893271 C28.1559707,42.5893271 28.5992927,42.4512761 28.9391337,42.1763341 C29.126105,42.0266821 29.2907339,41.8201856 29.4318444,41.5556845 L31.8718792,41.5556845 C31.8072036,42.0893271 31.5108717,42.6334107 30.9864112,43.1856148 C30.1679705,44.0614849 29.0214481,44.5 27.5480198,44.5 C26.3309422,44.5 25.2573269,44.1310905 24.3295256,43.3909513 C23.3970207,42.6519722 22.9337081,41.4477958 22.9337081,39.7819026 C22.9337081,38.2192575 23.3535117,37.0208817 24.1919429,36.1867749 C25.0327261,35.3549884 26.1204524,34.9361949 27.4598258,34.9361949 C28.2559239,34.9361949 28.9720595,35.0777262 29.6094083,35.3596288 L29.6094083,35.3596288 L29.6094083,35.3596288 Z M14.4635533,38.824826 L14.4635533,42.0765661 L17.4645022,42.0765661 C18.0007219,42.0765661 18.4193496,42.0046404 18.7168575,41.861949 C19.2589568,41.5951276 19.5294185,41.0893271 19.5294185,40.3399072 C19.5294185,39.7041763 19.2683641,39.2691415 18.7427277,39.0313225 C18.4487476,38.8990719 18.0359995,38.8294664 17.5068353,38.824826 L14.4635533,38.824826 L14.4635533,38.824826 Z M14.4635533,34.1171694 L14.4635533,36.8074246 L17.4692059,36.8074246 C18.0042497,36.8074246 18.4405162,36.7064965 18.7768294,36.5046404 C19.1107908,36.3027842 19.2789474,35.9454756 19.2789474,35.4350348 C19.2789474,34.8654292 19.0578744,34.4907193 18.6157283,34.3074246 C18.2323782,34.1809745 17.7455472,34.1171694 17.1540592,34.1171694 L14.4635533,34.1171694 L14.4635533,34.1171694 Z M21.1757071,33.2993039 C21.5531775,33.8178654 21.7425007,34.437355 21.7425007,35.1600928 C21.7425007,35.9037123 21.5531775,36.5034803 21.1710034,36.9559165 C20.9569859,37.2088167 20.6430151,37.4408353 20.2279152,37.649652 C20.8582085,37.8770302 21.3332804,38.2354988 21.6566585,38.7262181 C21.9765089,39.2157773 22.13761,39.812065 22.13761,40.512761 C22.13761,41.2354988 21.9541664,41.8839907 21.5861033,42.4570766 C21.353271,42.8364269 21.0616428,43.1566125 20.7112185,43.4164733 C20.3172852,43.7146172 19.8527966,43.9176334 19.315401,44.0290023 C18.7780053,44.1392111 18.1971006,44.1925754 17.5691591,44.1925754 L12,44.1925754 L12,32 L17.9724998,32 C19.4800298,32.0220418 20.5465896,32.4547564 21.1757071,33.2993039 L21.1757071,33.2993039 L21.1757071,33.2993039 Z" id="Behance"></path>
        </g>
    </g>
</svg>