<?xml version="1.0" encoding="UTF-8"?>
<svg width="20px" height="19px" viewBox="0 0 20 19" version="1.1" xmlns="http://www.w3.org/2000/svg" xmlns:xlink="http://www.w3.org/1999/xlink">
    <!-- Generator: Sketch 48.2 (47327) - http://www.bohemiancoding.com/sketch -->
    <title>LinkedIn-color</title>
    <desc>Created with Sketch.</desc>
    <defs></defs>
    <g id="Account-Settings/social" stroke="none" stroke-width="1" fill="none" fill-rule="evenodd" transform="translate(-837.000000, -510.000000)">
        <g id="input-copy-8" transform="translate(825.000000, 482.000000)" fill="#007EBB">
            <path d="M32,46.1818182 L27.5797272,46.1818182 L27.5797272,39.790182 C27.5797272,38.11718 26.8882879,36.975068 25.3678269,36.975068 C24.2048448,36.975068 23.5580903,37.7457898 23.2570555,38.4885701 C23.1441675,38.7551794 23.1618062,39.1265695 23.1618062,39.4979597 L23.1618062,46.1818182 L18.7826905,46.1818182 C18.7826905,46.1818182 18.8391345,34.8596576 18.7826905,33.8304761 L23.1618062,33.8304761 L23.1618062,35.7689231 C23.420508,34.9213619 24.8198495,33.7117244 27.0529163,33.7117244 C29.8233772,33.7117244 32,35.4883431 32,39.314011 L32,46.1818182 L32,46.1818182 Z M14.3541863,32.2855397 L14.3259643,32.2855397 C12.9148636,32.2855397 12,31.3413471 12,30.1445162 C12,28.9244006 12.9419097,28 14.3812324,28 C15.8193791,28 16.7036689,28.9220721 16.7318909,30.1410235 C16.7318909,31.3378544 15.8193791,32.2855397 14.3541863,32.2855397 L14.3541863,32.2855397 L14.3541863,32.2855397 Z M12.5044685,33.8304761 L16.4026341,33.8304761 L16.4026341,46.1818182 L12.5044685,46.1818182 L12.5044685,33.8304761 L12.5044685,33.8304761 Z" id="LinkedIn"></path>
        </g>
    </g>
</svg>